<?xml version="1.0" standalone="no"?><!DOCTYPE svg PUBLIC "-//W3C//DTD SVG 1.1//EN" "http://www.w3.org/Graphics/SVG/1.1/DTD/svg11.dtd"><svg t="1564037113130" class="icon" viewBox="0 0 1024 1024" version="1.1" xmlns="http://www.w3.org/2000/svg" p-id="2004" xmlns:xlink="http://www.w3.org/1999/xlink" width="200" height="200"><defs><style type="text/css"></style></defs><path d="M513.3 875.1H191.7c-10.4 0-15.6-10.4-15.6-20.7v-690c0-10.4 5.2-15.6 15.6-15.6H783c10.4 0 15.6 5.2 15.6 15.6V486c0 15.6 10.4 25.9 25.9 25.9 15.6 0 25.9-10.4 25.9-25.9V164.4c0-36.3-31.1-67.4-67.4-67.4H191.7c-36.3 0-67.4 31.1-67.4 67.4v689.9c0 41.5 31.1 72.6 67.4 72.6h321.6c15.6 0 25.9-10.4 25.9-25.9 0-15.5-10.3-25.9-25.9-25.9z" fill="" p-id="2005"></path><path d="M668.9 252.6H305.8c-15.6 0-25.9 10.4-25.9 25.9 0 15.6 10.4 25.9 25.9 25.9h363.1c15.6 0 25.9-10.4 25.9-25.9 0.1-15.5-10.3-25.9-25.9-25.9zM892 885.5L768.1 761.7c19.2-25.9 30.5-58.2 30.5-94 0-88.2-67.4-155.6-155.6-155.6-88.2 0-155.6 67.4-155.6 155.6 0 88.2 67.4 155.6 155.6 155.6 33.1 0 63.3-9.5 88.1-26l124.6 124.6c5.2 5.2 15.6 5.2 20.7 5.2 5.2 0 10.4-5.2 15.6-5.2 10.4-10.5 10.4-26 0-36.4zM643 771.4c-57.1 0-103.7-46.7-103.7-103.8 0-57.1 46.7-103.7 103.7-103.7s103.7 46.7 103.7 103.7c0 57.1-46.7 103.8-103.7 103.8z m25.9-363.2H305.8c-15.6 0-25.9 10.4-25.9 25.9 0 15.6 10.4 25.9 25.9 25.9h363.1c15.6 0 25.9-10.4 25.9-25.9 0.1-15.5-10.3-25.9-25.9-25.9z" fill="" p-id="2006"></path></svg>