<?xml version="1.0" standalone="no"?><!DOCTYPE svg PUBLIC "-//W3C//DTD SVG 1.1//EN" "http://www.w3.org/Graphics/SVG/1.1/DTD/svg11.dtd"><svg t="1568960814919" class="icon" viewBox="0 0 1024 1024" version="1.1" xmlns="http://www.w3.org/2000/svg" p-id="1953" xmlns:xlink="http://www.w3.org/1999/xlink" width="50" height="50"><defs><style type="text/css"></style></defs><path d="M883 521h27.2c33.1 0 60-26.9 60-60v-50.2c0-33.1-26.9-60-60-60H612V100C612 44.8 567.2 0 512 0S412 44.8 412 100v250.8H113.8c-33.1 0-60 26.9-60 60V461c0 33.1 26.9 60 60 60h18.4L0 974c0 27.6 22.4 50 50 50h924c27.6 0 50-22.4 50-50L883 521zM467 100c0-24.8 20.2-45 45-45s45 20.2 45 45v250.8h-90V100zM108.8 461v-50.2c0-2.8 2.2-5 5-5h796.4c2.8 0 5 2.2 5 5V461c0 2.8-2.2 5-5 5H113.8c-2.8 0-5-2.2-5-5z m152.1 508l31.3-230.3c2-15-8.5-28.9-23.5-31-15-2-28.9 8.5-31 23.5L205.4 969H58.8l130.7-448h636l139.4 448h-704z" p-id="1954"></path></svg>