<?xml version="1.0" standalone="no"?><!DOCTYPE svg PUBLIC "-//W3C//DTD SVG 1.1//EN" "http://www.w3.org/Graphics/SVG/1.1/DTD/svg11.dtd"><svg t="1563949129910" class="icon" viewBox="0 0 1024 1024" version="1.1" xmlns="http://www.w3.org/2000/svg" p-id="1149" xmlns:xlink="http://www.w3.org/1999/xlink" width="200" height="200"><defs><style type="text/css"></style></defs><path d="M832.1 287.4v358.7L651.7 465.7c-12.3-12.3-28.6-19.1-46-19.1-17.3 0-33.7 6.8-45.9 19L429.4 596.1l-48-48c-12.3-12.3-28.6-19.1-46-19.1-17.3 0-33.7 6.8-45.9 19l-97.6 97.6V287.4h640.2m31.9-63.9H160c-17.7 0-32 14.3-32 32v513c0 17.7 14.3 32 32 32h704c17.7 0 32-14.3 32-32v-513c0-17.7-14.3-32-32-32z m-434.6 463L605 510.9c0.2-0.2 0.5-0.3 0.7-0.3s0.5 0.1 0.7 0.3L832 736.5H191.6l143.2-143.2c0.2-0.2 0.5-0.3 0.7-0.3s0.5 0.1 0.7 0.3l93.2 93.2zM128 800.1l-0.4 0.4h0.4v-0.4z" p-id="1150"></path><path d="M417 386c-17.7 0-32 14.3-32 32s14.3 32 32 32 32-14.3 32-32-14.3-32-32-32z" p-id="1151"></path></svg>