<?xml version="1.0" standalone="no"?><!DOCTYPE svg PUBLIC "-//W3C//DTD SVG 1.1//EN" "http://www.w3.org/Graphics/SVG/1.1/DTD/svg11.dtd"><svg t="1567411112433" class="icon" viewBox="0 0 1024 1024" version="1.1" xmlns="http://www.w3.org/2000/svg" p-id="2136" xmlns:xlink="http://www.w3.org/1999/xlink" width="50" height="50"><defs><style type="text/css"></style></defs><path d="M923.2 104C899.2 80 857.6 86.4 832 112l-9.6 16h-92.8c-12.8 0-9.6-4.8-9.6 8v92.8L692.8 256h-134.4c-14.4 0-30.4 1.6-30.4 16v134.4l-20.8 22.4C400 356.8 254.4 369.6 160 464c-108.8 108.8-107.2 283.2 0 392 108.8 108.8 283.2 108.8 392 0 89.6-89.6 105.6-227.2 44.8-332.8l328-326.4c24-25.6 24-67.2-1.6-92.8z m-483.2 640c-46.4 46.4-121.6 46.4-168 0-46.4-46.4-46.4-121.6 0-168 46.4-46.4 121.6-46.4 168 0 46.4 46.4 46.4 121.6 0 168z" p-id="2137"></path></svg>