<?xml version="1.0" standalone="no"?><!DOCTYPE svg PUBLIC "-//W3C//DTD SVG 1.1//EN" "http://www.w3.org/Graphics/SVG/1.1/DTD/svg11.dtd"><svg t="1567410867838" class="icon" viewBox="0 0 1024 1024" version="1.1" xmlns="http://www.w3.org/2000/svg" p-id="1969" xmlns:xlink="http://www.w3.org/1999/xlink" width="50" height="50"><defs><style type="text/css"></style></defs><path d="M679.605 943.996H344.392c-123.413 0-223.481-100.069-223.481-223.48V497.032c0-61.766 50.034-111.792 111.74-111.792v-55.816c0-154.296 125.051-279.352 279.349-279.352 154.246 0 279.349 125.056 279.349 279.352v55.816c61.706 0 111.74 50.026 111.74 111.792v223.483c0 123.414-100.06 223.48-223.484 223.48zM456.134 705.018v71.313c0 30.883 24.984 55.866 55.866 55.866 30.824 0 55.874-24.981 55.874-55.866v-71.313c33.222-19.371 55.866-55.055 55.866-96.245 0-61.765-50.034-111.74-111.74-111.74s-111.74 49.975-111.74 111.74c0 41.188 22.584 76.874 55.874 96.245zM512 161.758c-92.59 0-167.608 75.077-167.608 167.668 0 19.692 4.036 38.302 10.255 55.815h314.706c6.22-17.513 10.254-36.123 10.254-55.815-0.002-92.59-75.069-167.667-167.607-167.667z" p-id="1970" fill="#2c2c2c"></path></svg>