<?xml version="1.0" standalone="no"?><!DOCTYPE svg PUBLIC "-//W3C//DTD SVG 1.1//EN" "http://www.w3.org/Graphics/SVG/1.1/DTD/svg11.dtd"><svg t="1563948939430" class="icon" viewBox="0 0 1024 1024" version="1.1" xmlns="http://www.w3.org/2000/svg" p-id="5673" xmlns:xlink="http://www.w3.org/1999/xlink" width="200" height="200"><defs><style type="text/css"></style></defs><path d="M329.741 284.524a1.523 1.523 0 1 0 194.93 0 1.523 1.523 0 1 0-194.93 0z" p-id="5674"></path><path d="M486.594 416.738c50.492-22.718 85.818-73.339 85.818-132.214 0-80.123-65.148-145.206-145.206-145.206-80.122 0-145.27 65.083-145.27 145.206 0 58.875 35.326 109.368 85.754 132.214 19.135-4.927 38.846-8.32 59.452-8.32 20.735 0 40.381 3.393 59.452 8.32z" p-id="5675"></path><path d="M471.555 624.723H236.244c11.839-94.84 92.985-168.5 190.962-168.5 50.3 0 95.865 19.519 130.167 51.26 10.431-7.295 20.734-14.91 31.485-20.542l10.048-5.183c-30.27-31.294-68.86-53.82-112.312-65.02-18.175 8.192-38.141 13.055-59.388 13.055-21.182 0-41.277-4.863-59.452-13.055C264.21 443.36 187.031 536.73 187.031 648.594c0 13.247 10.751 23.934 23.87 23.934l229.488 4.352c0-0.064 28.286-46.077 31.166-52.157z" p-id="5676"></path><path d="M486.594 416.738c-19.07-4.927-38.717-8.32-59.388-8.32-20.606 0-40.317 3.393-59.452 8.32 18.239 8.192 38.27 13.055 59.452 13.055 21.247 0 41.213-4.863 59.388-13.055zM769.71 713.293c-31.23-15.167-68.924-2.176-84.154 29.118-15.167 31.23-2.176 68.923 29.117 84.154 5.696 2.816 11.648 3.648 17.663 4.608 26.686 4.223 54.076-8.128 66.555-33.662 11.648-24.254 6.208-51.964-11.263-70.523-5.055-5.376-10.879-10.24-17.918-13.695z" p-id="5677"></path><path d="M941.921 794.311c20.67-5.183 37.694-10.175 51.133-14.91 0.32-13.824-0.128-27.903-2.176-41.982-0.064-1.216-0.256-2.432-0.384-3.648-13.951-3.327-31.23-6.4-52.348-9.279-2.752-12.031-6.592-23.55-11.264-34.621 15.231-14.783 27.454-27.518 36.67-38.398-7.296-13.567-15.68-26.366-25.023-38.205-13.695 4.096-30.397 10.111-50.044 18.175-8.191-8.96-17.343-17.023-27.07-24.318 5.824-20.415 9.983-37.63 12.607-51.709-12.927-8-26.622-14.975-40.701-20.67-1.472 1.664-3.328 3.775-4.928 5.503-8.703 9.664-18.302 20.99-29.374 35.198-3.711-1.088-7.679-1.472-11.455-2.368-8-1.984-15.87-4.096-24.062-5.12-5.248-20.542-10.175-37.565-14.975-50.94-13.823-0.448-27.838 0.128-41.853 2.048-1.472 0.128-2.624 0.32-3.84 0.512-3.135 13.823-6.463 31.23-9.215 52.348-11.135 2.496-21.822 6.208-32.062 10.495-0.896 0.32-1.728 0.384-2.496 0.768-14.782-15.295-27.518-27.518-38.397-36.67-8.127 4.225-15.23 9.792-22.782 14.848-5.056 3.52-10.623 6.271-15.423 10.111 4.096 13.695 10.111 30.27 18.175 49.98a212.035 212.035 0 0 0-23.23 25.919h-5.376c-18.367-5.12-34.366-9.024-47.293-11.392-2.24 3.584-3.712 7.68-5.76 11.392-5.375 9.599-10.815 19.198-14.91 29.374 5.247 4.927 11.199 10.175 17.982 15.87 6.784 5.696 14.335 11.776 22.719 18.24-3.328 11.582-6.016 23.485-7.36 35.709-20.606 5.12-37.63 10.175-51.068 14.91-0.512 13.76 0.192 27.775 1.984 41.918 0.192 1.215 0.384 2.495 0.576 3.711 13.823 3.328 31.23 6.336 52.348 9.28 1.408 6.015 3.84 11.583 5.695 17.406 1.856 5.696 3.2 11.647 5.504 17.151a865.616 865.616 0 0 0-23.358 23.742c-4.928 5.184-9.536 10.176-13.375 14.655a255.112 255.112 0 0 0 25.022 38.398c13.567-4.096 30.398-10.24 50.044-18.303 8.192 8.96 17.407 17.023 27.07 24.318-5.887 20.35-10.11 37.63-12.607 51.644 12.8 8.064 26.494 14.975 40.701 20.607 9.856-10.24 21.119-23.806 34.174-40.637 11.583 3.584 23.422 6.015 35.645 7.487 5.184 20.607 10.176 37.566 14.911 51.005a258.759 258.759 0 0 0 41.981-2.048c1.216-0.128 2.432-0.256 3.712-0.448 3.264-13.887 6.336-31.294 9.151-52.412a200.248 200.248 0 0 0 34.558-11.264c14.783 15.295 27.646 27.518 38.461 36.734a248.65 248.65 0 0 0 38.205-25.022c-3.967-13.631-9.983-30.334-18.174-50.045 8.895-8.255 16.959-17.407 24.254-27.006 20.415 5.824 37.693 9.983 51.708 12.607 8.064-12.863 15.04-26.494 20.67-40.829-10.43-9.727-23.933-21.118-40.764-34.173a185.77 185.77 0 0 0 7.487-35.646zM758.702 915.582c-46.332 6.08-90.041-10.623-121.079-40.957-12.031-11.775-21.886-25.406-29.31-40.829-6.655-13.695-11.775-28.35-13.887-44.348-4.672-35.198 4.288-68.86 21.887-96.826 14.463-22.91 35.069-41.469 60.027-53.564 13.76-6.591 28.35-11.775 44.285-13.823 23.486-3.136 46.14 0.128 67.067 7.424 14.655 5.183 28.542 12.03 40.765 21.31 29.95 22.847 51.197 57.148 56.508 97.401 10.496 80.186-46.14 153.717-126.263 164.212z" p-id="5678"></path><path d="M376.394 767.945H153.626c-49.469 0-89.594-40.125-89.594-89.594V153.59c0-49.468 40.125-89.594 89.594-89.594h524.762c49.469 0 89.594 40.126 89.594 89.594v236.207c0 2.368 46.588 6.08 63.995 11.135v-272.94C831.977 57.276 774.701 0 703.987 0h-575.96C57.313 0 0.037 57.276 0.037 127.99v575.96c0 70.715 57.276 127.99 127.99 127.99h258.094c-4.48-17.47-7.935-63.995-9.727-63.995z" p-id="5679"></path></svg>